# xmcd
#
# Track frame offsets: 
#        150
#        18888
#        38796
#        65058
#        83591
#        92073
#        109758
#        130481
#        148748
#        171323
#        188391
#
# Disc length: 2733 seconds
#
# Revision: 2
# Processed by: cddbd v1.5.2PL0 Copyright (c) Steve Scherf et al.
# Submitted via: ExactAudioCopy v0.95b4
#
DISCID=8f0aab0b
DTITLE=Jerry Douglas - Traveler
DYEAR=2012
DGENRE=Country
TTITLE0=On a Monday
TTITLE1=Something You Got
TTITLE2=So Here we are
TTITLE3=The Boxer
TTITLE4=Duke and Cookie
TTITLE5=High Blood Pressure
TTITLE6=Gone to Fortingall
TTITLE7=Right on Time
TTITLE8=American Time - Spain
TTITLE9=Frozen Fields
TTITLE10=King Silkie
EXTD=
EXTT0=
EXTT1=
EXTT2=
EXTT3=
EXTT4=
EXTT5=
EXTT6=
EXTT7=
EXTT8=
EXTT9=
EXTT10=
PLAYORDER=
